<?xml version="1.0" standalone="no"?>
<svg xmlns:xlink="http://www.w3.org/1999/xlink" id="wave" style="transform:rotate(0deg); transition: 0.3s" viewBox="0 0 1440 490" version="1.1" xmlns="http://www.w3.org/2000/svg"><defs><linearGradient id="sw-gradient-0" x1="0" x2="0" y1="1" y2="0"><stop stop-color="rgba(86, 182, 194, 1)" offset="0%"/><stop stop-color="rgba(86, 182, 194, 1)" offset="100%"/></linearGradient></defs><path style="transform:translate(0, 0px); opacity:1" fill="url(#sw-gradient-0)" d="M0,294L80,302.2C160,310,320,327,480,318.5C640,310,800,278,960,253.2C1120,229,1280,212,1440,179.7C1600,147,1760,98,1920,114.3C2080,131,2240,212,2400,220.5C2560,229,2720,163,2880,147C3040,131,3200,163,3360,179.7C3520,196,3680,196,3840,204.2C4000,212,4160,229,4320,245C4480,261,4640,278,4800,285.8C4960,294,5120,294,5280,294C5440,294,5600,294,5760,285.8C5920,278,6080,261,6240,236.8C6400,212,6560,180,6720,179.7C6880,180,7040,212,7200,212.3C7360,212,7520,180,7680,171.5C7840,163,8000,180,8160,155.2C8320,131,8480,65,8640,98C8800,131,8960,261,9120,277.7C9280,294,9440,196,9600,130.7C9760,65,9920,33,10080,24.5C10240,16,10400,33,10560,81.7C10720,131,10880,212,11040,236.8C11200,261,11360,229,11440,212.3L11520,196L11520,490L11440,490C11360,490,11200,490,11040,490C10880,490,10720,490,10560,490C10400,490,10240,490,10080,490C9920,490,9760,490,9600,490C9440,490,9280,490,9120,490C8960,490,8800,490,8640,490C8480,490,8320,490,8160,490C8000,490,7840,490,7680,490C7520,490,7360,490,7200,490C7040,490,6880,490,6720,490C6560,490,6400,490,6240,490C6080,490,5920,490,5760,490C5600,490,5440,490,5280,490C5120,490,4960,490,4800,490C4640,490,4480,490,4320,490C4160,490,4000,490,3840,490C3680,490,3520,490,3360,490C3200,490,3040,490,2880,490C2720,490,2560,490,2400,490C2240,490,2080,490,1920,490C1760,490,1600,490,1440,490C1280,490,1120,490,960,490C800,490,640,490,480,490C320,490,160,490,80,490L0,490Z"/></svg>